<svg xmlns="http://www.w3.org/2000/svg" width="800" height="650" viewBox="0 0 800 650"><g stroke="#20231c" stroke-width="7" stroke-linecap="round" stroke-linejoin="round"><path fill="#e8a355" d="M129 280 Q136 216 191 168 Q270 96 402 95 Q530 95 609 166 Q663 213 673 281 Q674 304 646 309 Q393 335 151 307 Q126 304 129 280Z"/><path fill="none" d="M153 287 Q402 315 650 284"/><ellipse cx="251" cy="181" rx="11" ry="4" transform="rotate(-28 251 181)" fill="#f4f1e7" stroke-width="3"/><ellipse cx="332" cy="148" rx="11" ry="4" transform="rotate(32 332 148)" fill="#f4f1e7" stroke-width="3"/><ellipse cx="421" cy="168" rx="11" ry="4" transform="rotate(-18 421 168)" fill="#f4f1e7" stroke-width="3"/><ellipse cx="494" cy="138" rx="11" ry="4" transform="rotate(24 494 138)" fill="#f4f1e7" stroke-width="3"/><ellipse cx="548" cy="186" rx="11" ry="4" transform="rotate(-24 548 186)" fill="#f4f1e7" stroke-width="3"/><ellipse cx="603" cy="225" rx="11" ry="4" transform="rotate(25 603 225)" fill="#f4f1e7" stroke-width="3"/><ellipse cx="178" cy="227" rx="11" ry="4" transform="rotate(-32 178 227)" fill="#f4f1e7" stroke-width="3"/><ellipse cx="245" cy="239" rx="11" ry="4" transform="rotate(22 245 239)" fill="#f4f1e7" stroke-width="3"/><ellipse cx="321" cy="203" rx="11" ry="4" transform="rotate(-26 321 203)" fill="#f4f1e7" stroke-width="3"/><ellipse cx="395" cy="228" rx="11" ry="4" transform="rotate(31 395 228)" fill="#f4f1e7" stroke-width="3"/><ellipse cx="477" cy="209" rx="11" ry="4" transform="rotate(17 477 209)" fill="#f4f1e7" stroke-width="3"/><ellipse cx="552" cy="256" rx="11" ry="4" transform="rotate(-20 552 256)" fill="#f4f1e7" stroke-width="3"/><ellipse cx="353" cy="268" rx="11" ry="4" transform="rotate(17 353 268)" fill="#f4f1e7" stroke-width="3"/><ellipse cx="455" cy="273" rx="11" ry="4" transform="rotate(-22 455 273)" fill="#f4f1e7" stroke-width="3"/></g></svg>